<svg xmlns="http://www.w3.org/2000/svg" version="1.1" viewBox="-5.0 -10.0 110.0 135.0">
 <path fill="#ffffff" d="m49.988 29.609c-10.93 0-20.84 2.1992-28.078 5.8203-7.2383 3.6211-11.91 8.7305-11.91 14.57 0.03125 2.3281 0.82812 4.6289 2.3203 6.7695 5.6914 8.3398 20.762 13.602 37.672 13.621 16.922-0.019531 31.988-5.2812 37.68-13.621 0.011719-0.019531 0.03125-0.039062 0.039063-0.058593 1.4609-2.1211 2.25-4.3906 2.2891-6.6992 0-5.8516-4.6797-10.961-11.922-14.578-7.2383-3.6211-17.141-5.8203-28.078-5.8203zm0 1.5703c10.719 0 20.422 2.1914 27.379 5.6602 6.9609 3.4688 11.051 8.1719 11.051 13.16-0.019531 1.2188-0.60156 2.4219-1.1914 3.6289-0.92187-2.3984-3.0312-5.2617-6.8516-8.0117-0.070312-0.050782-0.14844-0.10938-0.23047-0.16016-0.21875-0.14844-0.42969-0.30859-0.66016-0.46094-0.35156-0.23828-0.71094-0.46875-1.0898-0.71094-7.0117-4.3203-17.66-7.1406-28.41-7.1406-8.0586 0-16.059 1.5898-22.52 4.2109-0.53906 0.21875-1.0703 0.44141-1.5781 0.67188-1.5508 0.69922-2.9883 1.4492-4.3086 2.2617-0.37891 0.23828-0.73828 0.46875-1.1016 0.71094-0.21875 0.14062-0.42187 0.28906-0.62891 0.44141-0.089844 0.070313-0.19141 0.12891-0.28125 0.19922-3.8203 2.75-5.9219 5.6094-6.8398 8.0195-0.60156-1.2109-1.1797-2.4219-1.1914-3.6484 0-4.9883 4.1016-9.6797 11.051-13.148 6.9492-3.4805 16.66-5.6602 27.379-5.6602z"/>
</svg>