<?xml version="1.0" encoding="UTF-8"?>
<!DOCTYPE svg PUBLIC "-//W3C//DTD SVG 1.1//EN" "http://www.w3.org/Graphics/SVG/1.1/DTD/svg11.dtd">
<svg xmlns="http://www.w3.org/2000/svg" version="1.1" width="1024px" height="1024px" style="shape-rendering:geometricPrecision; text-rendering:geometricPrecision; image-rendering:optimizeQuality; fill-rule:evenodd; clip-rule:evenodd" xmlns:xlink="http://www.w3.org/1999/xlink">
<g><path fill="#ffffff" stroke="#ffffff" stroke-width="0.5" d="M 208.98,535 C 208.99,534.21 209.07,533.43 209.21,532.65 C 210.25,528.17 211.42,523.72 212.73,519.32 C 214.31,516.91 216.04,514.6 217.91,512.41 C 220.16,510.59 222.51,508.91 224.96,507.38 C 228.79,506.43 232.63,505.58 236.49,504.81 C 238.44,504.77 240.39,504.72 242.33,504.67 C 246.39,504.15 250.44,503.58 254.49,502.98 C 257.82,502.89 261.16,502.84 264.49,502.84 C 267.77,501.97 271.11,501.67 274.51,501.94 C 275.07,502 275.52,501.8 275.86,501.36 C 275.78,491.74 275.84,482.12 276.02,472.5 C 276.21,471.44 276.43,470.38 276.7,469.34 C 276.71,467.05 276.79,464.77 276.96,462.49 C 278.08,457.84 279.15,453.18 280.17,448.51 C 280.72,444.86 281.06,441.19 281.21,437.5 C 280.62,432.15 279.91,426.81 279.07,421.49 C 277.7,415.89 276.65,410.22 275.93,404.5 C 275.85,400.51 275.81,396.51 275.82,392.51 C 275.25,388.17 274.66,383.83 274.03,379.5 C 273.97,376.17 273.92,372.84 273.86,369.51 C 273.59,368.17 273.31,366.84 273.02,365.5 C 273.29,363.5 273.59,361.5 273.9,359.51 C 273.89,354.17 273.93,348.83 274.03,343.5 C 274.58,341.11 275.13,338.72 275.68,336.33 C 275.82,334.06 275.93,331.78 276.02,329.5 C 276.21,328.44 276.44,327.39 276.7,326.34 C 276.74,323.39 276.85,320.44 277.02,317.5 C 278.16,308.51 279.58,299.56 281.29,290.66 C 283.98,279 286.63,267.33 289.26,255.66 C 291.21,250.09 292.46,244.37 293.03,238.5 C 293.74,235.51 294.46,232.53 295.18,229.54 C 296.41,226.74 297.56,223.91 298.63,221.04 C 301.3,212.04 303.9,203.03 306.42,194 C 308.17,190.03 309.84,186.03 311.42,181.99 C 311.84,181.35 312.26,180.7 312.67,180.06 C 314.26,175.03 315.84,170 317.42,164.97 C 319.06,161.84 320.59,158.67 322.01,155.45 C 322.82,154.04 323.67,152.66 324.56,151.3 C 325.18,149.53 325.75,147.74 326.26,145.93 C 327,144.28 327.79,142.65 328.62,141.05 C 329.1,138.98 329.71,136.96 330.47,134.98 C 331.79,132.88 332.98,130.7 334.05,128.46 C 335.34,125.13 336.65,121.81 338,118.5 C 341.49,111.64 345.06,104.83 348.73,98.05 C 350.37,95.38 351.98,92.71 353.59,90.03 C 354.55,87.09 355.62,84.2 356.8,81.35 C 359.68,76.32 362.87,71.49 366.38,66.88 C 369.35,64.21 372.31,61.52 375.26,58.83 C 377.68,55.48 380.71,52.8 384.34,50.79 C 385.28,50.3 386.27,49.92 387.3,49.64 C 390.71,48.81 394.12,47.99 397.53,47.18 C 399.18,47 400.84,46.95 402.5,47.01 C 405.45,47.69 408.44,48.07 411.47,48.16 C 414.43,48.88 417.38,49.57 420.35,50.24 C 422.6,51.2 424.83,52.21 427.05,53.26 C 430.49,55.49 433.67,58.04 436.59,60.91 C 441.5,67.43 446.18,74.11 450.62,80.96 C 452.44,85.58 454.11,90.24 455.63,94.96 C 457.69,98.93 459.66,102.94 461.55,106.97 C 463.16,111.48 464.55,116.04 465.73,120.67 C 468.13,126.53 470.75,132.29 473.61,137.96 C 474.3,140.15 475.11,142.31 476.04,144.42 C 476.51,145.29 477.01,146.14 477.54,146.98 C 478.47,150.75 479.95,154.28 481.99,157.58 C 483.7,161.86 485.43,166.13 487.18,170.39 C 488.43,172.52 489.55,174.71 490.52,176.98 C 491.67,180.37 492.94,183.73 494.34,187.04 C 495.35,191.04 496.41,195.02 497.52,198.99 C 499.18,203.78 500.67,208.61 502,213.5 C 502.55,214.9 503.14,216.28 503.74,217.66 C 504.71,221.77 505.59,225.89 506.37,230.04 C 507.32,233.07 508.4,236.04 509.61,238.97 C 510.55,243.67 511.92,248.23 513.73,252.66 C 514.76,256.82 515.62,261.02 516.32,265.24 C 516.6,265.67 517.01,265.88 517.52,265.88 C 525.85,265.88 534.18,265.9 542.51,265.94 C 543.35,266.02 544.05,265.76 544.63,265.19 C 546.46,259.5 548.47,253.88 550.65,248.32 C 552.68,239.15 554.94,230.03 557.41,220.98 C 558.58,217.58 559.93,214.25 561.45,210.99 C 562.44,206.65 563.44,202.31 564.47,197.98 C 566.05,194.16 567.46,190.27 568.69,186.32 C 569.67,184.24 570.64,182.15 571.6,180.06 C 574.4,171.83 576.68,163.47 578.43,154.97 C 579.53,152.42 580.61,149.87 581.69,147.32 C 582.8,144.26 583.69,141.13 584.37,137.95 C 586.16,134.66 587.89,131.35 589.57,128.02 C 591.81,121.65 594.1,115.31 596.45,108.98 C 597.02,107.95 597.66,106.96 598.36,106.02 C 598.82,105.04 599.17,104.02 599.4,102.96 C 600.79,100.69 602.09,98.37 603.29,96 C 604.8,92.45 606.29,88.89 607.77,85.33 C 609.11,83.33 610.5,81.38 611.96,79.47 C 614.03,77.19 616.27,75.09 618.68,73.18 C 619.4,72.23 620.13,71.3 620.87,70.37 C 624.62,66.78 628.68,63.56 633.05,60.74 C 638.72,58.65 644.54,57.06 650.49,55.98 C 654.16,55.81 657.82,55.86 661.48,56.14 C 667.13,57.4 672.75,58.82 678.33,60.38 C 680.27,61.62 682.18,62.92 684.04,64.28 C 686.37,66.35 688.72,68.4 691.07,70.43 C 694.27,73.93 697.18,77.65 699.81,81.61 C 703.34,86.56 706.6,91.68 709.59,96.98 C 710.89,99.87 711.92,102.86 712.66,105.95 C 714.89,110.99 717.23,115.99 719.68,120.94 C 720.17,122.67 720.8,124.35 721.58,125.98 C 722.13,128.35 722.7,130.71 723.3,133.06 C 724.6,136.21 725.74,139.4 726.75,142.66 C 728.79,151.58 730.99,160.47 733.37,169.31 C 736.05,175.77 738.43,182.33 740.53,188.99 C 742.4,195.03 743.99,201.14 745.3,207.33 C 746.13,209.43 746.94,211.54 747.73,213.66 C 748.75,217.85 749.63,222.07 750.39,226.31 C 750.82,227.43 751.27,228.55 751.74,229.66 C 752.41,232.62 753.1,235.58 753.81,238.53 C 754.58,242.18 755.26,245.85 755.83,249.53 C 756,251.18 756.08,252.84 756.07,254.5 C 756.63,257.22 757.2,259.93 757.78,262.64 C 757.88,264.22 758.02,265.79 758.21,267.36 C 759.93,273.71 761.54,280.09 763.04,286.5 C 763.39,288.83 763.72,291.16 764.03,293.5 C 764.05,300.44 764.16,307.38 764.36,314.32 C 764.96,317.38 765.54,320.44 766.11,323.5 C 766.13,330.83 766.14,338.17 766.14,345.5 C 765.98,347.86 765.66,350.19 765.18,352.5 C 765.05,360.5 765.05,368.5 765.2,376.5 C 765.14,378.87 764.84,381.22 764.3,383.53 C 764.31,388.52 764.29,393.51 764.23,398.5 C 763.09,403.82 761.99,409.15 760.94,414.49 C 760.25,419.81 760.27,425.12 760.98,430.42 C 761.7,432.12 762.31,433.86 762.81,435.64 C 764.01,440.56 765.09,445.51 766.03,450.49 C 766.14,452.49 766.19,454.49 766.18,456.49 C 766.73,461.17 767.35,465.84 768.04,470.5 C 767.97,477.75 768.06,484.99 768.3,492.23 C 768.64,492.58 769.06,492.72 769.55,492.65 C 777.2,492.4 784.85,492.11 792.5,491.76 C 801.84,491.64 811.17,491.72 820.51,492 C 825.85,492.81 831.12,493.94 836.33,495.38 C 839.21,497.03 841.95,498.88 844.55,500.94 C 846.38,503.18 848.1,505.51 849.68,507.94 C 850.65,511.95 851.63,515.96 852.62,519.97 C 852.74,520.66 852.72,521.34 852.57,522.02 C 851.59,526.12 850.65,530.23 849.76,534.35 C 849.55,535.08 849.22,535.75 848.76,536.36 C 847.3,538.51 845.74,540.59 844.1,542.6 C 841.81,544.36 839.45,546.03 837.04,547.63 C 835.76,547.87 834.5,548.13 833.27,548.41 C 833.52,549.07 833.96,549.56 834.6,549.88 C 837.77,551.27 840.91,552.74 844.01,554.3 C 846.23,555.79 848.41,557.34 850.54,558.95 C 852.38,561.18 854.08,563.52 855.64,565.95 C 856.45,569.13 857.22,572.31 857.95,575.5 C 858.28,576.83 858.34,578.16 858.13,579.51 C 857.34,583.13 856.49,586.72 855.56,590.3 C 854.04,592.67 852.42,594.97 850.7,597.2 C 848.08,599.55 845.28,601.66 842.29,603.53 C 839.04,604.39 835.78,605.19 832.49,605.93 C 829.88,606.31 827.27,606.2 824.69,605.62 C 818.01,604.01 811.33,602.38 804.66,600.74 C 802.09,599.7 799.57,598.56 797.09,597.31 C 795.04,597.03 793.15,596.35 791.41,595.25 C 790.98,595.2 790.62,595.34 790.34,595.66 C 790.85,596.34 791.53,596.82 792.38,597.12 C 794.48,598.15 796.65,598.97 798.89,599.57 C 801.57,601.18 804.15,602.95 806.61,604.88 C 809.19,607.33 811.88,609.64 814.69,611.81 C 816.65,614.23 818.36,616.81 819.83,619.54 C 820.74,623.17 821.54,626.82 822.22,630.5 C 821.57,634.49 820.72,638.43 819.65,642.34 C 817.98,644.95 816.18,647.46 814.24,649.87 C 812.07,651.68 809.79,653.33 807.4,654.83 C 803.15,656.08 798.85,657.13 794.51,657.98 C 793.17,658.02 791.85,657.97 790.52,657.81 C 787.33,657.09 784.15,656.35 780.97,655.6 C 773.38,652.27 765.89,648.74 758.49,645.01 C 756.16,644.35 753.83,643.69 751.49,643.02 C 746.58,640.74 741.52,638.83 736.33,637.26 C 734.26,636.27 732.17,635.29 730.08,634.33 C 724.4,633.01 718.88,631.22 713.51,628.96 C 708.88,627.74 704.21,626.74 699.49,625.97 C 698.86,625.97 698.26,626.1 697.68,626.34 C 696.37,627.03 695.05,627.71 693.72,628.38 C 685.59,633.56 677.38,638.6 669.1,643.49 C 665.15,645.37 661.13,647.07 657.03,648.57 C 653.86,649.05 650.86,650.05 648.03,651.58 C 645.83,652.3 643.63,652.98 641.45,653.62 C 641.45,657.92 641.6,662.21 641.91,666.5 C 642.53,671.31 643.06,676.12 643.5,680.94 C 643.24,683.82 643.32,686.69 643.73,689.55 C 645.97,698.49 648.01,707.49 649.83,716.53 C 650.83,724.52 651.95,732.5 653.19,740.47 C 655.25,749.53 657.47,758.55 659.83,767.53 C 660.43,772.61 661.43,777.61 662.83,782.53 C 662.97,784.47 663.11,786.41 663.24,788.35 C 665.07,795.09 666.92,801.82 668.79,808.54 C 670.2,814.53 671.62,820.51 673.06,826.49 C 674.41,829.92 675.6,833.41 676.63,836.97 C 677.48,838.47 678.21,840.03 678.82,841.65 C 680.38,846.25 681.68,850.92 682.71,855.67 C 684.88,861.81 687.13,867.92 689.46,874.01 C 690.94,879.55 692.31,885.11 693.57,890.7 C 693.78,891.96 693.94,893.22 694.04,894.49 C 695.65,900.09 696.97,905.76 697.97,911.5 C 698.21,913.83 698.16,916.15 697.83,918.47 C 696.33,925.3 694.48,932.03 692.28,938.67 C 689.73,944.23 686.49,949.36 682.57,954.07 C 681.08,955.58 679.58,957.08 678.05,958.55 C 674.7,961.25 671.23,963.8 667.65,966.2 C 664.32,967.97 660.89,969.52 657.36,970.86 C 655.89,971.72 654.44,972.61 653.02,973.55 C 649.84,974.3 646.66,975.06 643.47,975.82 C 641.15,976.06 638.83,976.25 636.5,976.39 C 630.83,976.35 625.16,976.21 619.5,975.97 C 617.87,975.49 616.21,975.23 614.52,975.18 C 612.86,975.57 611.19,975.85 609.5,976.02 C 599.83,976.05 590.16,976.12 580.5,976.21 C 577.51,976.56 574.51,976.8 571.5,976.95 C 568.16,976.75 564.83,976.48 561.5,976.13 C 549.17,976.29 536.83,976.27 524.5,976.08 C 520.48,976.15 516.48,976.43 512.5,976.91 C 505.18,976.4 497.84,976.15 490.5,976.14 C 484.15,976.1 477.82,976.36 471.5,976.91 C 467.18,976.5 462.84,976.27 458.5,976.23 C 455.5,976.47 452.5,976.7 449.5,976.94 C 444.51,976.56 439.51,976.31 434.5,976.19 C 431.16,976.32 427.82,976.56 424.5,976.92 C 420.85,976.42 417.18,976.17 413.5,976.16 C 410.16,976.34 406.83,976.57 403.5,976.86 C 397.52,976.18 391.52,975.88 385.5,975.97 C 382.84,975.33 380.16,974.75 377.48,974.25 C 373.82,974.16 370.16,974.07 366.5,973.99 C 361.53,973.02 356.58,971.94 351.65,970.76 C 346.55,969.26 341.44,967.79 336.32,966.36 C 328.84,964.92 321.4,963.31 313.99,961.54 C 307.41,958.81 301.38,955.16 295.9,950.6 C 290.75,945.9 286.47,940.5 283.05,934.41 C 281.86,932.16 280.93,929.8 280.27,927.34 C 279.21,922.72 278.18,918.1 277.17,913.47 C 276.93,912.15 276.87,910.83 276.99,909.49 C 277.98,904.83 279.05,900.18 280.18,895.54 C 281.86,891.36 283.22,887.07 284.27,882.67 C 285.71,878.45 287.11,874.22 288.47,869.98 C 291.24,864.4 293.55,858.64 295.42,852.71 C 298.74,845.72 301.97,838.69 305.1,831.62 C 307.7,827.81 310.21,823.96 312.63,820.04 C 314,816.39 315.28,812.7 316.47,808.98 C 318.85,805 321.23,801.02 323.61,797.03 C 324.98,793.96 326.22,790.84 327.33,787.66 C 329.64,783.34 331.98,779.03 334.34,774.74 C 335.73,771.83 337.07,768.91 338.35,765.96 C 340.54,761.9 342.86,757.92 345.29,753.99 C 346.3,751.27 347.39,748.59 348.55,745.93 C 349.24,744.99 349.87,744.01 350.44,742.98 C 351.35,740.02 352.48,737.15 353.83,734.36 C 354.71,731.14 355.51,727.9 356.21,724.64 C 357.24,722.42 358,720.11 358.49,717.71 C 359.47,716.12 360.48,714.55 361.53,713.01 C 361.9,711.76 362.29,710.52 362.7,709.28 C 364.9,705.51 366.59,701.53 367.75,697.31 C 370.71,691.31 373.66,685.3 376.6,679.29 C 377.53,675.73 378.82,672.3 380.45,669 C 381.28,665.61 382.28,662.27 383.48,658.98 C 384,658.14 384.45,657.27 384.84,656.36 C 386.34,651.84 387.67,647.27 388.83,642.68 C 387.07,641.48 385.24,640.38 383.33,639.36 C 381.83,638.89 380.38,638.29 378.98,637.58 C 377.14,636.37 375.29,635.19 373.42,634.03 C 371.75,633.4 370.09,632.75 368.44,632.08 C 365.06,629.89 361.92,627.42 359,624.67 C 358.24,624.18 357.42,623.98 356.53,624.07 C 355.31,624.43 354.12,624.86 352.95,625.35 C 349.54,626.91 346.23,628.66 343.02,630.6 C 339.8,631.98 336.61,633.42 333.44,634.94 C 330.35,636.91 327.22,638.82 324.05,640.67 C 321.44,642.1 318.75,643.36 315.98,644.45 C 312.03,646.9 308.05,649.29 304.04,651.63 C 302.2,652.46 300.32,653.21 298.42,653.9 C 293.68,656.75 288.97,659.64 284.29,662.57 C 281.32,663.32 278.34,664.06 275.36,664.79 C 272.37,665.01 269.42,665.44 266.5,666.08 C 265.5,666.12 264.51,666.05 263.52,665.87 C 260.09,665.11 256.69,664.24 253.32,663.26 C 251.11,661.8 248.98,660.23 246.94,658.55 C 245.33,656.44 243.79,654.27 242.31,652.06 C 241.31,648.06 240.36,644.04 239.46,640.01 C 239.82,636.85 240.42,633.73 241.27,630.66 C 242.23,627.32 243.18,623.97 244.1,620.62 C 245.14,619 246.07,617.33 246.87,615.61 C 246.72,615.46 246.57,615.3 246.42,615.15 C 244.79,615.1 243.15,614.99 241.53,614.83 C 238.1,614.06 234.7,613.19 231.34,612.22 C 228.5,610.42 225.87,608.37 223.43,606.08 C 221.43,603.66 219.67,601.09 218.13,598.38 C 217.07,594.43 216.07,590.46 215.12,586.48 C 214.84,585.16 214.82,583.84 215.08,582.51 C 216.02,578.29 217.12,574.11 218.37,569.97 C 219.92,567.54 221.61,565.22 223.43,562.99 C 223.81,562.6 223.98,562.14 223.92,561.59 C 221.77,559.73 219.54,557.93 217.24,556.2 C 215.55,553.96 213.92,551.66 212.34,549.33 C 211.13,545.42 210.08,541.46 209.18,537.46 C 209.03,536.64 208.97,535.83 208.98,535 Z M 234,535 C 233.9,538.12 235.39,539.77 238.49,539.94 C 239.82,539.97 241.15,539.92 242.47,539.8 C 243.79,539.41 245.13,539.15 246.49,539.02 C 250.16,539.01 253.83,538.98 257.5,538.94 C 259.52,538.78 261.52,538.49 263.5,538.09 C 265.83,538.01 268.17,537.98 270.51,538 C 271.88,537.86 273.21,537.56 274.51,537.12 C 277.18,537.08 279.85,536.89 282.5,536.55 C 284.5,536.69 286.5,536.84 288.5,537 C 290.84,536.76 293.17,536.45 295.5,536.08 C 301.5,536.09 307.5,536.03 313.48,535.9 C 314.44,536.42 315.05,537.22 315.32,538.31 C 316.27,541.25 317.31,544.15 318.43,547.03 C 320.4,549.94 322.06,553.01 323.4,556.26 C 324.37,557.26 325.18,558.37 325.83,559.6 C 325.91,560.53 325.48,561.05 324.54,561.14 C 319.55,561.69 314.58,562.37 309.63,563.18 C 305.06,564.56 300.53,566.05 296.04,567.65 C 293.54,568.15 291.03,568.61 288.51,569.04 C 281.32,571.18 274.06,573 266.72,574.49 C 262.01,576.21 257.21,577.62 252.33,578.72 C 251.1,578.87 249.88,579.04 248.65,579.23 C 246.29,579.86 243.93,580.48 241.56,581.11 C 240.86,581.37 240.43,581.88 240.29,582.62 C 239.6,585.59 240.48,587.95 242.92,589.7 C 244.39,590.09 245.87,590.13 247.37,589.82 C 254.25,588.1 261.13,586.34 268.01,584.52 C 270.32,584.15 272.64,583.75 274.95,583.32 C 284.14,580.5 293.37,577.8 302.63,575.2 C 308.74,573.86 314.86,572.63 321.01,571.52 C 323.53,571.38 326.03,571.06 328.5,570.57 C 330.99,570.37 333.34,570.85 335.54,572.01 C 337.88,574.98 340.56,577.59 343.58,579.86 C 344.02,580.78 344.47,581.71 344.92,582.63 C 345.7,583.16 346.34,583.82 346.84,584.6 C 346.8,585.31 346.5,585.88 345.92,586.3 C 343.57,587.76 341.16,589.08 338.67,590.28 C 337.45,591.32 336.23,592.36 335.01,593.39 C 331.88,594.9 328.9,596.67 326.07,598.69 C 323.98,599.44 321.94,600.34 319.96,601.36 C 316.32,603.88 312.54,606.13 308.63,608.14 C 305.65,609.52 302.69,610.93 299.73,612.37 C 293.88,616.34 287.72,619.77 281.26,622.66 C 276.7,625.52 272.08,628.29 267.41,630.96 C 267.02,631.19 266.74,631.51 266.55,631.91 C 266.14,634.1 265.51,636.24 264.67,638.31 C 264.1,639.98 264.67,640.87 266.37,640.96 C 267.08,640.7 267.81,640.45 268.53,640.21 C 270.41,640.3 272.26,640.11 274.07,639.66 C 275.35,638.96 276.51,638.11 277.56,637.1 C 280.9,635.61 284.02,633.77 286.94,631.57 C 289.12,630.72 291.27,629.81 293.4,628.86 C 294.35,628.24 295.26,627.57 296.13,626.83 C 299.28,625.29 302.34,623.59 305.3,621.72 C 310.75,619.5 315.86,616.67 320.64,613.22 C 324.28,611.47 327.96,609.8 331.67,608.21 C 335.09,606.34 338.51,604.45 341.92,602.54 C 344.93,601.1 348.09,600.22 351.39,599.92 C 353.74,598.62 356.27,597.82 358.95,597.52 C 362.32,598.49 365.67,599.53 368.99,600.66 C 371.42,602.98 374.09,604.96 377.02,606.6 C 377.95,607.65 378.88,608.7 379.81,609.74 C 381.32,610.25 382.81,610.81 384.29,611.4 C 389.84,614.45 395.42,617.46 401.02,620.43 C 404.72,621.68 408.39,623.03 412.03,624.45 C 413.93,625.47 415.69,626.69 417.3,628.13 C 418.92,630.08 419.12,632.17 417.88,634.41 C 417.23,635.41 416.64,636.45 416.11,637.52 C 416.01,638.51 415.95,639.5 415.93,640.5 C 415.08,643.42 414.35,646.37 413.74,649.34 C 412.89,650.84 412.15,652.39 411.54,654 C 409.17,662.44 406.53,670.79 403.6,679.05 C 401.44,682.93 399.82,687.03 398.73,691.33 C 396.49,696.04 394.2,700.71 391.87,705.36 C 389.98,709.53 388.23,713.75 386.63,718.03 C 385.31,719.97 384.44,722.1 384,724.41 C 383.27,725.94 382.37,727.35 381.3,728.66 C 380.76,731.01 380.02,733.29 379.08,735.52 C 378.73,739.62 377.53,743.44 375.48,747 C 374.47,749.41 373.62,751.88 372.93,754.4 C 372.35,755.46 371.67,756.47 370.9,757.41 C 369.93,759.81 369.05,762.23 368.25,764.68 C 365.84,768.95 363.34,773.17 360.75,777.32 C 359.14,780.72 357.61,784.17 356.17,787.65 C 354.6,790.41 353.1,793.21 351.67,796.05 C 350.95,797 350.26,797.96 349.61,798.96 C 348.66,801.94 347.57,804.86 346.32,807.73 C 344.09,811.84 341.82,815.93 339.5,820 C 338.29,823.39 336.98,826.73 335.56,830.04 C 334.5,832 333.52,834 332.61,836.03 C 330.94,838.09 329.42,840.26 328.06,842.54 C 326.56,846.27 324.78,849.85 322.72,853.3 C 321.44,856.86 319.89,860.29 318.07,863.6 C 317.46,865.62 316.84,867.64 316.23,869.66 C 314.02,875.04 311.74,880.39 309.39,885.71 C 308.61,888.53 307.69,891.31 306.64,894.05 C 305.88,896.48 305.27,898.95 304.8,901.46 C 304.3,902.87 303.74,904.26 303.11,905.62 C 302.71,907.51 302.44,909.41 302.31,911.33 C 303.96,924.82 311.19,933.86 324.01,938.46 C 331.53,939.85 339.02,941.42 346.46,943.18 C 352.33,944.9 358.18,946.65 364.02,948.45 C 368.83,948.9 373.66,949.17 378.5,949.23 C 386.81,950.36 395.14,951.23 403.5,951.84 C 406.83,951.55 410.16,951.3 413.5,951.11 C 417.19,951.12 420.85,951.38 424.5,951.9 C 427.82,951.53 431.16,951.27 434.5,951.14 C 439.51,951.27 444.51,951.53 449.5,951.92 C 452.5,951.67 455.5,951.43 458.5,951.19 C 462.84,951.22 467.18,951.46 471.5,951.9 C 477.82,951.32 484.15,951.05 490.5,951.09 C 497.84,951.1 505.18,951.37 512.5,951.89 C 516.48,951.4 520.48,951.11 524.5,951.01 C 536.83,951.23 549.17,951.26 561.5,951.08 C 564.83,951.44 568.16,951.73 571.5,951.93 C 574.51,951.77 577.51,951.52 580.5,951.17 C 589.5,951.14 598.5,951.02 607.5,950.82 C 609.82,950.44 612.15,950.2 614.5,950.09 C 618.83,950.47 623.16,950.84 627.5,951.19 C 632.05,951.69 636.56,951.49 641.02,950.58 C 645.18,948.67 649.38,946.85 653.6,945.09 C 657.31,942.94 660.69,940.35 663.74,937.32 C 666.84,933.96 669.02,930.07 670.25,925.66 C 671.25,922.3 672.14,918.91 672.92,915.5 C 672.72,913.16 672.51,910.82 672.28,908.49 C 671.07,904.53 669.97,900.54 668.95,896.51 C 668.87,894.89 668.79,893.28 668.72,891.66 C 667.82,889.05 667.12,886.4 666.63,883.69 C 665.97,882.19 665.24,880.73 664.44,879.3 C 663.42,876.54 662.52,873.74 661.74,870.91 C 661.37,870.26 661.01,869.6 660.67,868.95 C 659.2,863.63 657.81,858.31 656.49,852.99 C 655.86,851.38 655.1,849.83 654.21,848.35 C 652.46,842.93 650.53,837.58 648.42,832.3 C 648.19,831.03 648.09,829.76 648.12,828.47 C 647.01,825.57 646.35,822.58 646.11,819.5 C 645.55,817.75 644.87,816.05 644.07,814.39 C 643.78,812.85 643.61,811.28 643.56,809.7 C 641.69,803.28 639.91,796.82 638.24,790.35 C 638.07,788.74 637.96,787.13 637.89,785.51 C 637.19,781.79 636.31,778.1 635.27,774.46 C 635.21,772.84 635.08,771.23 634.88,769.62 C 634.34,768.53 633.86,767.43 633.42,766.3 C 632.77,761.05 631.78,755.86 630.47,750.73 C 629.87,747.93 629.07,745.18 628.07,742.49 C 627.94,740.84 627.86,739.18 627.83,737.52 C 626.61,731.55 625.65,725.54 624.96,719.5 C 624.37,717.49 623.77,715.49 623.18,713.48 C 622.62,710.52 622.2,707.53 621.91,704.52 C 620.69,700.04 619.55,695.53 618.5,691 C 618.2,687.83 618.16,684.67 618.37,681.5 C 617.9,674.13 617.25,666.79 616.4,659.46 C 616.27,653.14 616.09,646.82 615.86,640.5 C 615.79,638.48 616.41,636.72 617.71,635.2 C 619.77,634.2 621.85,633.25 623.95,632.34 C 628.4,631.1 632.86,629.9 637.33,628.72 C 638.87,627.96 640.42,627.19 641.96,626.42 C 643.34,626.22 644.71,625.97 646.07,625.65 C 649.85,624.5 653.52,623.09 657.09,621.44 C 658.85,620.02 660.82,618.98 662.98,618.31 C 664.01,617.44 665.03,616.57 666.06,615.7 C 672.47,612.07 678.84,608.37 685.17,604.61 C 687.35,601.94 690.12,600.26 693.5,599.55 C 697.17,600 700.84,600.52 704.49,601.13 C 707.41,601.97 710.37,602.67 713.35,603.23 C 716.95,604.46 720.62,605.46 724.34,606.25 C 728.88,608.53 733.66,610.01 738.68,610.69 C 746.49,613.86 754.27,617.1 762.02,620.41 C 764.37,621.12 766.74,621.71 769.14,622.2 C 770.55,622.89 771.93,623.66 773.25,624.51 C 777.74,626.18 782.1,628.12 786.33,630.33 C 788.95,632.65 791.98,633.47 795.41,632.79 C 796.94,632.24 797.43,631.18 796.87,629.61 C 794.45,627.8 792.16,625.81 790.01,623.63 C 787.78,622.32 785.45,621.22 783.01,620.35 C 780.78,619 778.59,617.58 776.44,616.09 C 774.11,615.28 771.94,614.18 769.93,612.77 C 765.34,611.18 760.7,609.74 756.01,608.47 C 751.74,606.37 747.29,604.76 742.66,603.65 C 741.3,602.72 739.85,601.95 738.32,601.35 C 733.51,600.55 728.73,599.61 723.99,598.53 C 719.97,596.71 715.85,595.17 711.62,593.91 C 709.15,592.41 706.5,591.31 703.68,590.62 C 702.38,590.13 702.07,589.28 702.74,588.1 C 704.31,586.38 705.94,584.72 707.62,583.12 C 709.55,580.41 711.69,577.88 714.03,575.52 C 715.03,574.17 715.99,572.78 716.89,571.36 C 717.93,570.42 718.91,569.42 719.82,568.36 C 721.25,567.47 722.81,566.98 724.48,566.88 C 728.16,566.87 731.83,566.89 735.5,566.95 C 741.13,567.84 746.81,568.14 752.51,567.86 C 754.17,568.19 755.83,568.49 757.5,568.76 C 763.5,568.8 769.5,568.8 775.5,568.77 C 776.93,568.88 778.32,569.16 779.68,569.63 C 784.32,569.64 788.95,569.97 793.55,570.59 C 799.18,571.71 804.67,573.3 810.03,575.39 C 811.34,576.13 812.65,576.86 813.95,577.6 C 817.92,578.4 821.82,579.44 825.66,580.72 C 827.57,581.07 829.49,581.1 831.4,580.83 C 832.78,580.15 833.33,579.05 833.06,577.53 C 832.88,577.03 832.57,576.64 832.12,576.35 C 828.53,574.63 824.95,572.87 821.39,571.09 C 816.91,569.59 812.35,568.4 807.72,567.52 C 804.3,566.31 800.85,565.21 797.36,564.22 C 795.63,564.19 793.96,563.85 792.36,563.22 C 786.73,562.52 781.11,561.85 775.48,561.23 C 766.48,560.92 757.49,560.57 748.5,560.18 C 746.48,559.98 744.46,559.7 742.46,559.36 C 738.15,559.22 733.84,559.03 729.53,558.79 C 728.76,558.7 728,558.54 727.26,558.32 C 726.75,558.17 726.41,557.83 726.25,557.32 C 726.22,555.06 726.23,552.79 726.29,550.53 C 726.8,549.27 727.48,548.1 728.32,547.01 C 728.98,544.32 729.76,541.66 730.67,539.05 C 731.89,535.01 734.48,532.28 738.45,530.87 C 739.75,530.32 741.09,529.95 742.48,529.76 C 744.43,529.81 746.37,529.77 748.31,529.62 C 749.71,529.09 751.11,528.56 752.51,528.04 C 754.5,527.89 756.49,527.82 758.49,527.84 C 761.76,526.96 765.1,526.62 768.5,526.81 C 772.18,526.28 775.84,525.68 779.49,525.02 C 785.51,525.05 791.52,524.73 797.5,524.08 C 803.17,524.02 808.84,524 814.5,524.02 C 817.65,524.72 820.83,525.26 824.03,525.62 C 825.11,525.47 826.02,525.03 826.78,524.28 C 827.22,523.09 827.5,521.86 827.61,520.6 C 827.33,519.38 826.61,518.53 825.44,518.05 C 821.81,517.49 818.17,517.05 814.5,516.75 C 807.17,516.74 799.83,516.76 792.5,516.81 C 788.47,516.86 784.46,517.14 780.47,517.66 C 776.81,517.69 773.15,517.7 769.5,517.68 C 767.98,517.83 766.48,518.11 765,518.51 C 763.5,518.54 762,518.56 760.5,518.58 C 755.22,519.16 749.94,519.75 744.67,520.34 C 743,520.99 741.28,521.24 739.5,521.09 C 738.99,520.99 738.63,520.71 738.42,520.25 C 739.19,516.98 740.03,513.72 740.95,510.49 C 741.07,508.78 741.39,507.12 741.91,505.49 C 742.02,503.84 742.1,502.18 742.17,500.52 C 742.51,499.54 742.78,498.53 742.99,497.51 C 743.04,489.51 743.06,481.5 743.05,473.5 C 742.34,468.85 741.73,464.18 741.21,459.48 C 741.14,456.82 741.07,454.16 740.98,451.51 C 739.45,445.14 737.76,438.8 735.89,432.52 C 735.44,428.54 735.26,424.54 735.33,420.53 C 735.63,415.82 736.1,411.14 736.75,406.49 C 737.33,403.43 738.16,400.43 739.24,397.52 C 739.28,392.18 739.27,386.84 739.21,381.5 C 739.72,379.53 740.03,377.53 740.14,375.5 C 739.98,369.83 739.79,364.17 739.59,358.5 C 740.03,355.23 740.24,351.94 740.23,348.64 C 740.85,347.33 741.15,345.95 741.12,344.5 C 741.08,337.83 741.06,331.16 741.08,324.49 C 740.4,321.51 739.78,318.51 739.22,315.5 C 739.16,306.47 738.82,297.46 738.18,288.46 C 737.66,286.96 737.13,285.47 736.58,283.98 C 735.89,280.55 735.23,277.12 734.62,273.69 C 734.12,271.95 733.61,270.21 733.07,268.48 C 732.94,266.83 732.85,265.18 732.82,263.52 C 732.21,261.15 731.69,258.76 731.25,256.35 C 731.08,254.78 730.93,253.21 730.8,251.64 C 730.12,248.28 729.47,244.91 728.85,241.53 C 727.44,238.21 726.28,234.8 725.37,231.32 C 725.43,229.06 725.26,226.83 724.87,224.62 C 723.53,220.9 722.32,217.15 721.24,213.35 C 720.87,210.43 720.3,207.55 719.54,204.71 C 716.62,197.31 713.86,189.85 711.25,182.34 C 708.81,172.51 706.29,162.72 703.69,152.94 C 701.57,147.74 699.92,142.4 698.74,136.92 C 697.58,133.44 696.25,130.02 694.75,126.67 C 694.04,125.5 693.26,124.38 692.4,123.32 C 691.95,120.69 691,118.25 689.56,115.99 C 688.78,113.49 687.93,111.01 687.01,108.55 C 685.44,106.34 684.11,103.97 683.04,101.47 C 681.1,98.98 679.37,96.36 677.84,93.6 C 675.94,91.5 674.07,89.36 672.23,87.2 C 670.65,85.79 669.05,84.42 667.42,83.09 C 664.42,82.58 661.45,81.87 658.52,80.98 C 655.89,80.81 653.27,80.91 650.66,81.27 C 648.21,82.14 645.76,83.01 643.34,83.87 C 642.08,85.6 640.52,87 638.66,88.07 C 637.84,89.28 637.01,90.47 636.16,91.65 C 635.21,92.4 634.25,93.12 633.26,93.81 C 632.42,95.24 631.37,96.5 630.12,97.59 C 627.76,103.08 625.12,108.43 622.21,113.65 C 621.74,114.91 621.37,116.2 621.11,117.52 C 620.37,118.5 619.68,119.53 619.06,120.59 C 618.58,122 617.98,123.36 617.25,124.66 C 616.47,127.81 615.48,130.91 614.29,133.94 C 612.08,139.44 609.55,144.79 606.71,149.98 C 606.3,152.83 605.57,155.59 604.5,158.28 C 603.45,160.84 602.38,163.39 601.29,165.93 C 601.01,168.78 600.47,171.57 599.67,174.32 C 599.25,175.2 598.84,176.08 598.43,176.96 C 596.97,181.81 595.52,186.66 594.07,191.5 C 592.97,193.57 592.02,195.71 591.23,197.92 C 590.05,201.88 588.72,205.79 587.25,209.66 C 586.32,214.19 585.13,218.66 583.67,223.06 C 582.67,225.16 581.73,227.29 580.85,229.45 C 578.32,239.05 575.96,248.68 573.79,258.35 C 572.43,260.78 571.33,263.33 570.51,266 C 568.67,271.03 567.14,276.15 565.9,281.36 C 564.54,283.42 563.32,285.55 562.22,287.76 C 561.01,288.86 559.73,289.86 558.38,290.77 C 556.7,290.91 555.07,291.23 553.47,291.76 C 551.15,291.71 548.83,291.71 546.5,291.75 C 544.18,291.39 541.84,291.13 539.5,290.96 C 532.83,290.93 526.16,290.92 519.49,290.94 C 516.16,291.58 512.82,292.19 509.48,292.78 C 505.48,293.09 501.48,293.44 497.49,293.82 C 495.63,294.07 494.49,293.29 494.08,291.49 C 493.78,290.15 493.5,288.82 493.24,287.48 C 493.38,283.15 493.31,278.82 493.02,274.49 C 492.41,272.16 491.81,269.81 491.22,267.47 C 490.86,263.93 489.96,260.54 488.51,257.28 C 488.24,254.97 487.75,252.71 487.05,250.5 C 484.66,244.39 482.86,238.12 481.64,231.69 C 480.59,228.55 479.48,225.43 478.33,222.32 C 477.41,218.11 476.2,213.98 474.7,209.94 C 473.56,205.64 472.49,201.33 471.48,197.01 C 469.3,192.67 467.4,188.2 465.8,183.61 C 465.33,182.84 464.85,182.08 464.35,181.33 C 462.71,177.49 461.21,173.6 459.85,169.65 C 457.87,166.39 456.37,162.93 455.35,159.26 C 453.23,155.99 451.68,152.46 450.7,148.68 C 448.1,143.19 445.63,137.65 443.31,132.05 C 441.79,127.33 440.23,122.63 438.65,117.93 C 436.95,114.01 435.11,110.16 433.14,106.37 C 431.66,102.13 430.23,97.87 428.86,93.6 C 425.74,88.79 422.52,84.05 419.21,79.38 C 417.74,77.48 416,75.88 413.98,74.59 C 411.51,73.96 409.01,73.48 406.49,73.15 C 404.27,72.09 401.94,71.72 399.49,72.02 C 398.61,72.01 397.79,72.22 397.03,72.67 C 393.78,75.69 390.61,78.79 387.53,81.98 C 386.71,82.53 385.89,83.08 385.07,83.62 C 383.07,86.63 381.25,89.74 379.62,92.96 C 378.71,95.62 377.6,98.2 376.3,100.7 C 374.43,103.9 372.56,107.09 370.68,110.28 C 367.44,116.84 364.05,123.32 360.48,129.72 C 359.11,133.13 357.77,136.56 356.45,140 C 353.69,145.87 351.02,151.77 348.45,157.71 C 347.94,161.16 346.59,164.25 344.39,166.96 C 343.31,170.09 341.94,173.07 340.28,175.92 C 338.78,180.66 337.23,185.37 335.62,190.06 C 335.02,191.44 334.31,192.75 333.49,194.01 C 332.43,196.91 331.28,199.78 330.03,202.59 C 328.11,208.49 326.39,214.44 324.87,220.45 C 322.8,227.23 320.46,233.91 317.84,240.49 C 317.61,243.79 317.2,247.07 316.61,250.32 C 315.89,253.31 315.26,256.32 314.72,259.34 C 314.19,260.74 313.64,262.13 313.07,263.52 C 312.3,267.48 311.55,271.42 310.81,275.37 C 310.17,277.54 309.38,279.65 308.42,281.7 C 307.91,284.73 307.24,287.73 306.43,290.7 C 304.54,300.91 303.03,311.17 301.91,321.5 C 301.81,323.83 301.79,326.16 301.83,328.49 C 301.59,329.84 301.3,331.17 300.95,332.49 C 300.91,334.49 300.87,336.49 300.83,338.48 C 300.22,341.15 299.62,343.82 299.06,346.5 C 298.9,355.83 298.9,365.17 299.06,374.5 C 299.64,379.5 300.23,384.5 300.83,389.5 C 300.85,393.84 300.87,398.17 300.9,402.51 C 301.96,409.01 303.16,415.49 304.51,421.95 C 304.5,422.74 304.49,423.54 304.5,424.34 C 305.09,428.39 305.68,432.44 306.27,436.5 C 306.24,440.86 305.92,445.2 305.32,449.52 C 304.62,451.27 304.32,453.08 304.4,454.97 C 303.42,458.11 302.56,461.28 301.82,464.49 C 301.84,466.82 301.82,469.15 301.75,471.47 C 301.38,473.13 301.09,474.81 300.88,476.5 C 300.85,483.5 300.86,490.51 300.88,497.51 C 301.52,499.77 301.91,502.06 302.06,504.4 C 303.95,510.93 306.2,517.36 308.8,523.68 C 309.13,524.9 308.67,525.63 307.44,525.87 C 304.46,525.96 301.48,526.01 298.49,526 C 297.16,526.29 295.83,526.58 294.5,526.88 C 287.16,526.93 279.83,526.96 272.5,526.98 C 267.2,527.87 261.87,528.2 256.49,527.98 C 252.49,528.56 248.48,529.14 244.46,529.7 C 241.81,529.72 239.16,529.8 236.51,529.92 C 235.7,530.16 235.15,530.68 234.87,531.49 C 234.31,532.59 234.02,533.76 234,535 Z M 370.27,434 C 370.48,431.87 370.84,429.76 371.35,427.68 C 372.08,425.8 372.74,423.89 373.34,421.95 C 375.9,416.52 378.64,411.18 381.55,405.93 C 383.03,404.19 384.59,402.52 386.22,400.91 C 387.74,398.97 389.21,397 390.64,395.01 C 394.46,391.56 398.19,388.02 401.84,384.39 C 406.01,382.66 410.05,380.68 413.97,378.43 C 418.32,377.17 422.66,375.84 426.99,374.45 C 431.16,374.41 435.33,374.38 439.5,374.39 C 442.42,373.8 445.37,373.5 448.34,373.49 C 451.73,373.93 455.1,374.51 458.43,375.2 C 460.45,376.21 462.54,377.05 464.69,377.73 C 466.38,379.13 468.16,380.41 470.05,381.54 C 475.93,386.59 481.55,391.93 486.89,397.55 C 487.98,399.73 489.33,401.72 490.95,403.54 C 492.53,407.26 494.14,410.96 495.77,414.66 C 496.41,416.67 497.06,418.67 497.73,420.66 C 498.11,424.25 498.55,427.83 499.05,431.41 C 499.63,432.81 500.15,434.24 500.62,435.68 C 501.41,440.92 501.97,446.2 502.3,451.5 C 502.45,455.45 502.19,459.38 501.51,463.29 C 500,468.15 498.69,473.06 497.58,478.02 C 495.08,484.48 491.58,490.33 487.07,495.57 C 484.79,497.61 482.63,499.76 480.58,502.04 C 478.86,502.94 477.18,503.92 475.54,504.97 C 474.57,505.44 473.57,505.83 472.54,506.15 C 468.59,506.9 464.64,507.65 460.7,508.41 C 457.67,509.41 454.6,510.28 451.51,511.03 C 441.84,511.04 432.17,511.05 422.5,511.06 C 420.58,511.14 418.85,510.59 417.31,509.43 C 414.68,508.77 412.14,507.9 409.67,506.79 C 407.43,506.48 405.24,505.96 403.08,505.26 C 400.93,503.85 398.82,502.37 396.74,500.82 C 395.61,499.61 394.52,498.36 393.48,497.07 C 392.7,496.46 391.89,495.89 391.05,495.36 C 387.75,491.73 384.3,488.25 380.71,484.9 C 378.38,480.82 376.03,476.77 373.65,472.73 C 373.05,469.92 372.26,467.17 371.27,464.47 C 370.9,454.32 370.56,444.16 370.27,434 Z M 583.03,448 C 582.8,445.1 583.11,442.26 583.95,439.5 C 584.03,437.88 584.11,436.26 584.21,434.64 C 584.8,431.59 585.45,428.56 586.17,425.53 C 586.92,423.25 587.6,420.94 588.23,418.62 C 591.37,412.77 594.43,406.89 597.41,400.97 C 599.52,398.71 601.43,396.29 603.15,393.72 C 604.99,392.48 606.38,390.85 607.34,388.85 C 608.85,387.35 610.34,385.84 611.83,384.32 C 614.97,382.52 618.02,380.57 620.99,378.47 C 624.44,377.42 627.78,376.12 631.04,374.58 C 635.82,375.1 640.63,375.34 645.46,375.3 C 648.2,376.14 650.94,376.96 653.68,377.76 C 657.82,380.48 662.15,382.85 666.66,384.87 C 670.21,388 673.58,391.29 676.79,394.76 C 678.11,397.15 679.37,399.57 680.59,402.03 C 681.45,403.14 682.29,404.25 683.13,405.38 C 684.48,408.74 685.82,412.11 687.13,415.48 C 687.78,418.14 688.41,420.82 689.01,423.49 C 689.09,424.78 689.16,426.07 689.22,427.36 C 689.8,431.08 690.45,434.78 691.17,438.48 C 691.68,440.54 692.22,442.59 692.81,444.64 C 692.89,448.26 693.03,451.88 693.25,455.5 C 693.06,458.16 692.92,460.82 692.86,463.48 C 691.73,466.24 690.99,469.09 690.63,472.04 C 689.63,474.79 688.64,477.55 687.65,480.31 C 687.06,481.57 686.39,482.79 685.64,483.97 C 683.09,487.46 680.45,490.87 677.72,494.22 C 676.16,495.67 674.53,497.04 672.85,498.35 C 670.5,500.74 668.26,503.23 666.13,505.8 C 662.78,507.26 659.51,508.88 656.32,510.66 C 652.74,511.57 649.13,512.3 645.48,512.84 C 638.16,513 630.84,513.01 623.52,512.86 C 620.6,512.32 617.74,511.61 614.91,510.71 C 612.04,509.23 609.29,507.57 606.65,505.72 C 602.63,502.88 598.97,499.62 595.68,495.96 C 593.09,492.49 590.6,488.96 588.21,485.36 C 587.52,483.95 586.91,482.51 586.38,481.04 C 586.18,479.46 585.77,477.93 585.18,476.46 C 584.37,472.82 583.73,469.16 583.25,465.47 C 583.19,459.65 583.11,453.82 583.03,448 Z M 445.17,446 C 445.24,448.85 445.5,451.69 445.97,454.51 C 446.3,455.75 446.72,456.95 447.23,458.13 C 448.32,459.85 449.21,461.66 449.91,463.58 C 451.18,465.59 452.68,467.41 454.41,469.04 C 456.18,469.89 457.94,470.77 459.69,471.68 C 460.23,471.88 460.79,471.93 461.35,471.83 C 463.28,471.09 465.17,470.28 467.04,469.41 C 468.3,468.43 469.42,467.3 470.39,466.03 C 471.8,461.46 473.17,456.88 474.5,452.29 C 474.54,446.95 474.53,441.62 474.46,436.29 C 473.51,432.96 472.3,429.73 470.83,426.6 C 468.68,424.14 466.43,421.78 464.08,419.5 C 463.28,419.07 462.42,418.88 461.51,418.94 C 459.14,418.75 456.95,419.28 454.94,420.52 C 453.82,421.66 452.74,422.84 451.69,424.05 C 449.94,427.96 448.1,431.82 446.15,435.63 C 446.06,439.1 445.73,442.56 445.17,446 Z M 611.08,447 C 611.59,452.44 612.01,457.88 612.32,463.33 C 614.25,466.39 616.08,469.52 617.79,472.71 C 618.09,473.06 618.44,473.36 618.83,473.6 C 621.61,474.77 624.5,475.15 627.5,474.73 C 630.48,474.61 633.22,473.79 635.75,472.25 C 636.25,471.76 636.68,471.2 637.03,470.59 C 637.83,468.45 638.78,466.38 639.88,464.39 C 640.01,458.1 639.99,451.81 639.82,445.52 C 639.06,442.56 638.76,439.56 638.9,436.51 C 638.39,434.48 637.69,432.52 636.8,430.63 C 635.15,428.61 633.6,426.51 632.17,424.34 C 630.91,423.31 629.63,422.3 628.34,421.32 C 624.05,419.37 620.52,420.29 617.75,424.09 C 615.92,427.61 614.06,431.12 612.18,434.63 C 611.91,436.6 611.57,438.56 611.16,440.51 C 611.08,442.67 611.05,444.84 611.08,447 Z M 535.89,502 C 535.6,499.89 536.47,498.59 538.51,498.09 C 541.85,497.88 545.18,497.54 548.49,497.07 C 552.16,497.05 555.83,497.07 559.49,497.1 C 561.93,497.64 563.34,499.17 563.72,501.67 C 564.26,503.81 563.53,505.31 561.53,506.18 C 558.17,506.76 554.83,507.43 551.5,508.2 C 547.06,506.92 542.56,506.01 538,505.46 C 536.32,504.94 535.62,503.79 535.89,502 Z"/></g>
<g><path fill="#000000" stroke="#000000" stroke-width="0.5" d="M 234,535 C 234.05,533.2 234.63,531.61 235.75,530.22 C 236,530.12 236.26,530.02 236.51,529.92 C 239.16,529.8 241.81,529.72 244.46,529.7 C 248.48,529.14 252.49,528.56 256.49,527.98 C 261.87,528.2 267.2,527.87 272.5,526.98 C 279.83,526.96 287.16,526.93 294.5,526.88 C 295.83,526.58 297.16,526.29 298.49,526 C 301.48,526.01 304.46,525.96 307.44,525.87 C 308.67,525.63 309.13,524.9 308.8,523.68 C 306.2,517.36 303.95,510.93 302.06,504.4 C 301.91,502.06 301.52,499.77 300.88,497.51 C 300.86,490.51 300.85,483.5 300.88,476.5 C 301.09,474.81 301.38,473.13 301.75,471.47 C 301.82,469.15 301.84,466.82 301.82,464.49 C 302.56,461.28 303.42,458.11 304.4,454.97 C 304.32,453.08 304.62,451.27 305.32,449.52 C 305.92,445.2 306.24,440.86 306.27,436.5 C 305.68,432.44 305.09,428.39 304.5,424.34 C 304.49,423.54 304.5,422.74 304.51,421.95 C 303.16,415.49 301.96,409.01 300.9,402.51 C 300.87,398.17 300.85,393.84 300.83,389.5 C 300.23,384.5 299.64,379.5 299.06,374.5 C 298.9,365.17 298.9,355.83 299.06,346.5 C 299.62,343.82 300.22,341.15 300.83,338.48 C 300.87,336.49 300.91,334.49 300.95,332.49 C 301.3,331.17 301.59,329.84 301.83,328.49 C 301.79,326.16 301.81,323.83 301.91,321.5 C 303.03,311.17 304.54,300.91 306.43,290.7 C 307.24,287.73 307.91,284.73 308.42,281.7 C 309.38,279.65 310.17,277.54 310.81,275.37 C 311.55,271.42 312.3,267.48 313.07,263.52 C 313.64,262.13 314.19,260.74 314.72,259.34 C 315.26,256.32 315.89,253.31 316.61,250.32 C 317.2,247.07 317.61,243.79 317.84,240.49 C 320.46,233.91 322.8,227.23 324.87,220.45 C 326.39,214.44 328.11,208.49 330.03,202.59 C 331.28,199.78 332.43,196.91 333.49,194.01 C 334.31,192.75 335.02,191.44 335.62,190.06 C 337.23,185.37 338.78,180.66 340.28,175.92 C 341.94,173.07 343.31,170.09 344.39,166.96 C 346.59,164.25 347.94,161.16 348.45,157.71 C 351.02,151.77 353.69,145.87 356.45,140 C 357.77,136.56 359.11,133.13 360.48,129.72 C 364.05,123.32 367.44,116.84 370.68,110.28 C 372.56,107.09 374.43,103.9 376.3,100.7 C 377.6,98.2 378.71,95.62 379.62,92.96 C 381.25,89.74 383.07,86.63 385.07,83.62 C 385.89,83.08 386.71,82.53 387.53,81.98 C 390.61,78.79 393.78,75.69 397.03,72.67 C 397.79,72.22 398.61,72.01 399.49,72.02 C 401.94,71.72 404.27,72.09 406.49,73.15 C 409.01,73.48 411.51,73.96 413.98,74.59 C 416,75.88 417.74,77.48 419.21,79.38 C 422.52,84.05 425.74,88.79 428.86,93.6 C 430.23,97.87 431.66,102.13 433.14,106.37 C 435.11,110.16 436.95,114.01 438.65,117.93 C 440.23,122.63 441.79,127.33 443.31,132.05 C 445.63,137.65 448.1,143.19 450.7,148.68 C 451.68,152.46 453.23,155.99 455.35,159.26 C 456.37,162.93 457.87,166.39 459.85,169.65 C 461.21,173.6 462.71,177.49 464.35,181.33 C 464.85,182.08 465.33,182.84 465.8,183.61 C 467.4,188.2 469.3,192.67 471.48,197.01 C 472.49,201.33 473.56,205.64 474.7,209.94 C 476.2,213.98 477.41,218.11 478.33,222.32 C 479.48,225.43 480.59,228.55 481.64,231.69 C 482.86,238.12 484.66,244.39 487.05,250.5 C 487.75,252.71 488.24,254.97 488.51,257.28 C 489.96,260.54 490.86,263.93 491.22,267.47 C 491.81,269.81 492.41,272.16 493.02,274.49 C 493.31,278.82 493.38,283.15 493.24,287.48 C 493.5,288.82 493.78,290.15 494.08,291.49 C 494.49,293.29 495.63,294.07 497.49,293.82 C 501.48,293.44 505.48,293.09 509.48,292.78 C 512.82,292.19 516.16,291.58 519.49,290.94 C 526.16,290.92 532.83,290.93 539.5,290.96 C 541.84,291.13 544.18,291.39 546.5,291.75 C 548.83,291.71 551.15,291.71 553.47,291.76 C 555.07,291.23 556.7,290.91 558.38,290.77 C 559.73,289.86 561.01,288.86 562.22,287.76 C 563.32,285.55 564.54,283.42 565.9,281.36 C 567.14,276.15 568.67,271.03 570.51,266 C 571.33,263.33 572.43,260.78 573.79,258.35 C 575.96,248.68 578.32,239.05 580.85,229.45 C 581.73,227.29 582.67,225.16 583.67,223.06 C 585.13,218.66 586.32,214.19 587.25,209.66 C 588.72,205.79 590.05,201.88 591.23,197.92 C 592.02,195.71 592.97,193.57 594.07,191.5 C 595.52,186.66 596.97,181.81 598.43,176.96 C 598.84,176.08 599.25,175.2 599.67,174.32 C 600.47,171.57 601.01,168.78 601.29,165.93 C 603.23,161.7 604.89,157.37 606.27,152.92 C 606.49,151.95 606.63,150.97 606.71,149.98 C 609.55,144.79 612.08,139.44 614.29,133.94 C 615.48,130.91 616.47,127.81 617.25,124.66 C 617.98,123.36 618.58,122 619.06,120.59 C 619.68,119.53 620.37,118.5 621.11,117.52 C 621.37,116.2 621.74,114.91 622.21,113.65 C 625.12,108.43 627.76,103.08 630.12,97.59 C 631.37,96.5 632.42,95.24 633.26,93.81 C 634.25,93.12 635.21,92.4 636.16,91.65 C 637.01,90.47 637.84,89.28 638.66,88.07 C 640.52,87 642.08,85.6 643.34,83.87 C 645.76,83.01 648.21,82.14 650.66,81.27 C 653.27,80.91 655.89,80.81 658.52,80.98 C 661.45,81.87 664.42,82.58 667.42,83.09 C 669.05,84.42 670.65,85.79 672.23,87.2 C 674.07,89.36 675.94,91.5 677.84,93.6 C 679.37,96.36 681.1,98.98 683.04,101.47 C 684.11,103.97 685.44,106.34 687.01,108.55 C 687.93,111.01 688.78,113.49 689.56,115.99 C 691,118.25 691.95,120.69 692.4,123.32 C 693.26,124.38 694.04,125.5 694.75,126.67 C 696.25,130.02 697.58,133.44 698.74,136.92 C 699.92,142.4 701.57,147.74 703.69,152.94 C 706.29,162.72 708.81,172.51 711.25,182.34 C 713.86,189.85 716.62,197.31 719.54,204.71 C 720.3,207.55 720.87,210.43 721.24,213.35 C 722.32,217.15 723.53,220.9 724.87,224.62 C 725.26,226.83 725.43,229.06 725.37,231.32 C 726.28,234.8 727.44,238.21 728.85,241.53 C 729.47,244.91 730.12,248.28 730.8,251.64 C 730.93,253.21 731.08,254.78 731.25,256.35 C 731.69,258.76 732.21,261.15 732.82,263.52 C 732.85,265.18 732.94,266.83 733.07,268.48 C 733.61,270.21 734.12,271.95 734.62,273.69 C 735.23,277.12 735.89,280.55 736.58,283.98 C 737.13,285.47 737.66,286.96 738.18,288.46 C 738.82,297.46 739.16,306.47 739.22,315.5 C 739.78,318.51 740.4,321.51 741.08,324.49 C 741.06,331.16 741.08,337.83 741.12,344.5 C 741.15,345.95 740.85,347.33 740.23,348.64 C 740.24,351.94 740.03,355.23 739.59,358.5 C 739.79,364.17 739.98,369.83 740.14,375.5 C 740.03,377.53 739.72,379.53 739.21,381.5 C 739.27,386.84 739.28,392.18 739.24,397.52 C 738.16,400.43 737.33,403.43 736.75,406.49 C 736.1,411.14 735.63,415.82 735.33,420.53 C 735.26,424.54 735.44,428.54 735.89,432.52 C 737.76,438.8 739.45,445.14 740.98,451.51 C 741.07,454.16 741.14,456.82 741.21,459.48 C 741.73,464.18 742.34,468.85 743.05,473.5 C 743.06,481.5 743.04,489.51 742.99,497.51 C 742.78,498.53 742.51,499.54 742.17,500.52 C 742.1,502.18 742.02,503.84 741.91,505.49 C 741.39,507.12 741.07,508.78 740.95,510.49 C 740.03,513.72 739.19,516.98 738.42,520.25 C 738.63,520.71 738.99,520.99 739.5,521.09 C 741.28,521.24 743,520.99 744.67,520.34 C 749.94,519.75 755.22,519.16 760.5,518.58 C 762,518.56 763.5,518.54 765,518.51 C 766.48,518.11 767.98,517.83 769.5,517.68 C 773.15,517.7 776.81,517.69 780.47,517.66 C 784.46,517.14 788.47,516.86 792.5,516.81 C 799.83,516.76 807.17,516.74 814.5,516.75 C 818.17,517.05 821.81,517.49 825.44,518.05 C 826.61,518.53 827.33,519.38 827.61,520.6 C 827.5,521.86 827.22,523.09 826.78,524.28 C 826.02,525.03 825.11,525.47 824.03,525.62 C 820.83,525.26 817.65,524.72 814.5,524.02 C 808.84,524 803.17,524.02 797.5,524.08 C 791.52,524.73 785.51,525.05 779.49,525.02 C 775.84,525.68 772.18,526.28 768.5,526.81 C 765.1,526.62 761.76,526.96 758.49,527.84 C 756.49,527.82 754.5,527.89 752.51,528.04 C 751.11,528.56 749.71,529.09 748.31,529.62 C 746.37,529.77 744.43,529.81 742.48,529.76 C 739.05,530.24 736.05,531.65 733.5,534 C 732.31,535.54 731.37,537.22 730.67,539.05 C 729.76,541.66 728.98,544.32 728.32,547.01 C 727.48,548.1 726.8,549.27 726.29,550.53 C 726.23,552.79 726.22,555.06 726.25,557.32 C 726.41,557.83 726.75,558.17 727.26,558.32 C 728,558.54 728.76,558.7 729.53,558.79 C 733.84,559.03 738.15,559.22 742.46,559.36 C 744.46,559.7 746.48,559.98 748.5,560.18 C 757.49,560.57 766.48,560.92 775.48,561.23 C 781.11,561.85 786.73,562.52 792.36,563.22 C 793.96,563.85 795.63,564.19 797.36,564.22 C 800.85,565.21 804.3,566.31 807.72,567.52 C 812.35,568.4 816.91,569.59 821.39,571.09 C 824.95,572.87 828.53,574.63 832.12,576.35 C 833.31,577.46 833.45,578.69 832.51,580.06 C 832.21,580.41 831.84,580.67 831.4,580.83 C 829.49,581.1 827.57,581.07 825.66,580.72 C 821.82,579.44 817.92,578.4 813.95,577.6 C 812.65,576.86 811.34,576.13 810.03,575.39 C 804.67,573.3 799.18,571.71 793.55,570.59 C 788.95,569.97 784.32,569.64 779.68,569.63 C 778.32,569.16 776.93,568.88 775.5,568.77 C 769.5,568.8 763.5,568.8 757.5,568.76 C 755.83,568.49 754.17,568.19 752.51,567.86 C 746.81,568.14 741.13,567.84 735.5,566.95 C 731.2,566.81 726.91,566.87 722.63,567.14 C 721.64,567.42 720.7,567.83 719.82,568.36 C 718.91,569.42 717.93,570.42 716.89,571.36 C 715.99,572.78 715.03,574.17 714.03,575.52 C 711.69,577.88 709.55,580.41 707.62,583.12 C 705.94,584.72 704.31,586.38 702.74,588.1 C 702.07,589.28 702.38,590.13 703.68,590.62 C 706.5,591.31 709.15,592.41 711.62,593.91 C 715.85,595.17 719.97,596.71 723.99,598.53 C 728.73,599.61 733.51,600.55 738.32,601.35 C 739.85,601.95 741.3,602.72 742.66,603.65 C 747.29,604.76 751.74,606.37 756.01,608.47 C 760.7,609.74 765.34,611.18 769.93,612.77 C 771.94,614.18 774.11,615.28 776.44,616.09 C 778.59,617.58 780.78,619 783.01,620.35 C 785.45,621.22 787.78,622.32 790.01,623.63 C 792.16,625.81 794.45,627.8 796.87,629.61 C 797.43,631.18 796.94,632.24 795.41,632.79 C 791.98,633.47 788.95,632.65 786.33,630.33 C 782.1,628.12 777.74,626.18 773.25,624.51 C 771.93,623.66 770.55,622.89 769.14,622.2 C 766.74,621.71 764.37,621.12 762.02,620.41 C 754.27,617.1 746.49,613.86 738.68,610.69 C 733.66,610.01 728.88,608.53 724.34,606.25 C 720.62,605.46 716.95,604.46 713.35,603.23 C 710.37,602.67 707.41,601.97 704.49,601.13 C 700.84,600.52 697.17,600 693.5,599.55 C 690.12,600.26 687.35,601.94 685.17,604.61 C 678.84,608.37 672.47,612.07 666.06,615.7 C 665.03,616.57 664.01,617.44 662.98,618.31 C 660.82,618.98 658.85,620.02 657.09,621.44 C 653.52,623.09 649.85,624.5 646.07,625.65 C 644.71,625.97 643.34,626.22 641.96,626.42 C 640.42,627.19 638.87,627.96 637.33,628.72 C 632.86,629.9 628.4,631.1 623.95,632.34 C 621.85,633.25 619.77,634.2 617.71,635.2 C 616.41,636.72 615.79,638.48 615.86,640.5 C 616.09,646.82 616.27,653.14 616.4,659.46 C 617.25,666.79 617.9,674.13 618.37,681.5 C 618.16,684.67 618.2,687.83 618.5,691 C 619.55,695.53 620.69,700.04 621.91,704.52 C 622.2,707.53 622.62,710.52 623.18,713.48 C 623.77,715.49 624.37,717.49 624.96,719.5 C 625.65,725.54 626.61,731.55 627.83,737.52 C 627.86,739.18 627.94,740.84 628.07,742.49 C 629.07,745.18 629.87,747.93 630.47,750.73 C 631.78,755.86 632.77,761.05 633.42,766.3 C 633.86,767.43 634.34,768.53 634.88,769.62 C 635.08,771.23 635.21,772.84 635.27,774.46 C 636.31,778.1 637.19,781.79 637.89,785.51 C 637.96,787.13 638.07,788.74 638.24,790.35 C 639.91,796.82 641.69,803.28 643.56,809.7 C 643.61,811.28 643.78,812.85 644.07,814.39 C 645.64,817.06 646.44,819.93 646.45,823.01 C 647.04,824.82 647.59,826.64 648.12,828.47 C 648.09,829.76 648.19,831.03 648.42,832.3 C 650.53,837.58 652.46,842.93 654.21,848.35 C 655.1,849.83 655.86,851.38 656.49,852.99 C 657.81,858.31 659.2,863.63 660.67,868.95 C 661.01,869.6 661.37,870.26 661.74,870.91 C 662.52,873.74 663.42,876.54 664.44,879.3 C 665.24,880.73 665.97,882.19 666.63,883.69 C 667.12,886.4 667.82,889.05 668.72,891.66 C 668.79,893.28 668.87,894.89 668.95,896.51 C 669.97,900.54 671.07,904.53 672.28,908.49 C 672.51,910.82 672.72,913.16 672.92,915.5 C 672.14,918.91 671.25,922.3 670.25,925.66 C 668.38,932.28 664.62,937.55 658.98,941.49 C 657.29,942.84 655.5,944.05 653.6,945.09 C 649.38,946.85 645.18,948.67 641.02,950.58 C 636.56,951.49 632.05,951.69 627.5,951.19 C 623.16,950.84 618.83,950.47 614.5,950.09 C 612.15,950.2 609.82,950.44 607.5,950.82 C 598.5,951.02 589.5,951.14 580.5,951.17 C 577.51,951.52 574.51,951.77 571.5,951.93 C 568.16,951.73 564.83,951.44 561.5,951.08 C 549.17,951.26 536.83,951.23 524.5,951.01 C 520.48,951.11 516.48,951.4 512.5,951.89 C 505.18,951.37 497.84,951.1 490.5,951.09 C 484.15,951.05 477.82,951.32 471.5,951.9 C 467.18,951.46 462.84,951.22 458.5,951.19 C 455.5,951.43 452.5,951.67 449.5,951.92 C 444.51,951.53 439.51,951.27 434.5,951.14 C 431.16,951.27 427.82,951.53 424.5,951.9 C 420.85,951.38 417.19,951.12 413.5,951.11 C 410.16,951.3 406.83,951.55 403.5,951.84 C 395.14,951.23 386.81,950.36 378.5,949.23 C 373.66,949.17 368.83,948.9 364.02,948.45 C 358.18,946.65 352.33,944.9 346.46,943.18 C 339.02,941.42 331.53,939.85 324.01,938.46 C 311.19,933.86 303.96,924.82 302.31,911.33 C 302.44,909.41 302.71,907.51 303.11,905.62 C 303.74,904.26 304.3,902.87 304.8,901.46 C 305.27,898.95 305.88,896.48 306.64,894.05 C 307.69,891.31 308.61,888.53 309.39,885.71 C 311.74,880.39 314.02,875.04 316.23,869.66 C 316.84,867.64 317.46,865.62 318.07,863.6 C 319.89,860.29 321.44,856.86 322.72,853.3 C 324.78,849.85 326.56,846.27 328.06,842.54 C 329.42,840.26 330.94,838.09 332.61,836.03 C 333.52,834 334.5,832 335.56,830.04 C 336.98,826.73 338.29,823.39 339.5,820 C 341.82,815.93 344.09,811.84 346.32,807.73 C 347.57,804.86 348.66,801.94 349.61,798.96 C 350.26,797.96 350.95,797 351.67,796.05 C 353.1,793.21 354.6,790.41 356.17,787.65 C 357.61,784.17 359.14,780.72 360.75,777.32 C 363.34,773.17 365.84,768.95 368.25,764.68 C 369.05,762.23 369.93,759.81 370.9,757.41 C 371.67,756.47 372.35,755.46 372.93,754.4 C 374.05,750.43 375.57,746.64 377.51,743.02 C 378.33,740.58 378.85,738.08 379.08,735.52 C 380.02,733.29 380.76,731.01 381.3,728.66 C 382.37,727.35 383.27,725.94 384,724.41 C 384.44,722.1 385.31,719.97 386.63,718.03 C 388.23,713.75 389.98,709.53 391.87,705.36 C 394.2,700.71 396.49,696.04 398.73,691.33 C 399.82,687.03 401.44,682.93 403.6,679.05 C 406.53,670.79 409.17,662.44 411.54,654 C 412.15,652.39 412.89,650.84 413.74,649.34 C 414.35,646.37 415.08,643.42 415.93,640.5 C 415.95,639.5 416.01,638.51 416.11,637.52 C 416.64,636.45 417.23,635.41 417.88,634.41 C 419.12,632.17 418.92,630.08 417.3,628.13 C 415.69,626.69 413.93,625.47 412.03,624.45 C 408.39,623.03 404.72,621.68 401.02,620.43 C 395.42,617.46 389.84,614.45 384.29,611.4 C 382.81,610.81 381.32,610.25 379.81,609.74 C 378.88,608.7 377.95,607.65 377.02,606.6 C 374.09,604.96 371.42,602.98 368.99,600.66 C 365.67,599.53 362.32,598.49 358.95,597.52 C 356.27,597.82 353.74,598.62 351.39,599.92 C 348.09,600.22 344.93,601.1 341.92,602.54 C 338.51,604.45 335.09,606.34 331.67,608.21 C 327.96,609.8 324.28,611.47 320.64,613.22 C 315.86,616.67 310.75,619.5 305.3,621.72 C 302.34,623.59 299.28,625.29 296.13,626.83 C 295.26,627.57 294.35,628.24 293.4,628.86 C 291.27,629.81 289.12,630.72 286.94,631.57 C 284.02,633.77 280.9,635.61 277.56,637.1 C 276.51,638.11 275.35,638.96 274.07,639.66 C 272.26,640.11 270.41,640.3 268.53,640.21 C 267.37,640.91 266.16,641.06 264.91,640.64 C 264.48,639.9 264.41,639.12 264.67,638.31 C 265.51,636.24 266.14,634.1 266.55,631.91 C 266.74,631.51 267.02,631.19 267.41,630.96 C 272.08,628.29 276.7,625.52 281.26,622.66 C 287.72,619.77 293.88,616.34 299.73,612.37 C 302.69,610.93 305.65,609.52 308.63,608.14 C 312.54,606.13 316.32,603.88 319.96,601.36 C 321.94,600.34 323.98,599.44 326.07,598.69 C 328.9,596.67 331.88,594.9 335.01,593.39 C 336.23,592.36 337.45,591.32 338.67,590.28 C 341.16,589.08 343.57,587.76 345.92,586.3 C 346.5,585.88 346.8,585.31 346.84,584.6 C 346.34,583.82 345.7,583.16 344.92,582.63 C 344.47,581.71 344.02,580.78 343.58,579.86 C 340.56,577.59 337.88,574.98 335.54,572.01 C 333.34,570.85 330.99,570.37 328.5,570.57 C 326.03,571.06 323.53,571.38 321.01,571.52 C 314.86,572.63 308.74,573.86 302.63,575.2 C 293.37,577.8 284.14,580.5 274.95,583.32 C 272.64,583.75 270.32,584.15 268.01,584.52 C 261.13,586.34 254.25,588.1 247.37,589.82 C 243.44,590.85 241.04,589.4 240.18,585.47 C 240.05,584.52 240.08,583.57 240.29,582.62 C 240.43,581.88 240.86,581.37 241.56,581.11 C 243.93,580.48 246.29,579.86 248.65,579.23 C 249.88,579.04 251.1,578.87 252.33,578.72 C 257.21,577.62 262.01,576.21 266.72,574.49 C 274.06,573 281.32,571.18 288.51,569.04 C 291.03,568.61 293.54,568.15 296.04,567.65 C 300.53,566.05 305.06,564.56 309.63,563.18 C 314.58,562.37 319.55,561.69 324.54,561.14 C 325.48,561.05 325.91,560.53 325.83,559.6 C 325.18,558.37 324.37,557.26 323.4,556.26 C 322.06,553.01 320.4,549.94 318.43,547.03 C 317.19,543.62 315.92,540.22 314.63,536.82 C 314.37,536.36 313.99,536.06 313.48,535.9 C 307.5,536.03 301.5,536.09 295.5,536.08 C 293.17,536.45 290.84,536.76 288.5,537 C 286.5,536.84 284.5,536.69 282.5,536.55 C 279.85,536.89 277.18,537.08 274.51,537.12 C 273.21,537.56 271.88,537.86 270.51,538 C 268.17,537.98 265.83,538.01 263.5,538.09 C 261.52,538.49 259.52,538.78 257.5,538.94 C 253.83,538.98 250.16,539.01 246.49,539.02 C 245.13,539.15 243.79,539.41 242.47,539.8 C 240.52,540.02 238.58,539.98 236.64,539.7 C 234.68,538.75 233.81,537.19 234,535 Z M 370.27,434 C 370.56,444.16 370.9,454.32 371.27,464.47 C 372.26,467.17 373.05,469.92 373.65,472.73 C 376.03,476.77 378.38,480.82 380.71,484.9 C 384.3,488.25 387.75,491.73 391.05,495.36 C 391.89,495.89 392.7,496.46 393.48,497.07 C 394.52,498.36 395.61,499.61 396.74,500.82 C 398.82,502.37 400.93,503.85 403.08,505.26 C 405.24,505.96 407.43,506.48 409.67,506.79 C 412.14,507.9 414.68,508.77 417.31,509.43 C 418.85,510.59 420.58,511.14 422.5,511.06 C 432.17,511.05 441.84,511.04 451.51,511.03 C 454.6,510.28 457.67,509.41 460.7,508.41 C 464.64,507.65 468.59,506.9 472.54,506.15 C 473.57,505.83 474.57,505.44 475.54,504.97 C 477.18,503.92 478.86,502.94 480.58,502.04 C 482.63,499.76 484.79,497.61 487.07,495.57 C 491.58,490.33 495.08,484.48 497.58,478.02 C 498.69,473.06 500,468.15 501.51,463.29 C 502.19,459.38 502.45,455.45 502.3,451.5 C 501.97,446.2 501.41,440.92 500.62,435.68 C 500.15,434.24 499.63,432.81 499.05,431.41 C 498.55,427.83 498.11,424.25 497.73,420.66 C 497.06,418.67 496.41,416.67 495.77,414.66 C 494.14,410.96 492.53,407.26 490.95,403.54 C 489.33,401.72 487.98,399.73 486.89,397.55 C 481.55,391.93 475.93,386.59 470.05,381.54 C 468.16,380.41 466.38,379.13 464.69,377.73 C 462.54,377.05 460.45,376.21 458.43,375.2 C 455.1,374.51 451.73,373.93 448.34,373.49 C 445.37,373.5 442.42,373.8 439.5,374.39 C 435.33,374.38 431.16,374.41 426.99,374.45 C 422.66,375.84 418.32,377.17 413.97,378.43 C 410.05,380.68 406.01,382.66 401.84,384.39 C 398.19,388.02 394.46,391.56 390.64,395.01 C 389.21,397 387.74,398.97 386.22,400.91 C 384.59,402.52 383.03,404.19 381.55,405.93 C 378.64,411.18 375.9,416.52 373.34,421.95 C 372.74,423.89 372.08,425.8 371.35,427.68 C 370.84,429.76 370.48,431.87 370.27,434 Z M 583.03,448 C 583.11,453.82 583.19,459.65 583.25,465.47 C 583.73,469.16 584.37,472.82 585.18,476.46 C 585.77,477.93 586.18,479.46 586.38,481.04 C 586.91,482.51 587.52,483.95 588.21,485.36 C 590.6,488.96 593.09,492.49 595.68,495.96 C 598.97,499.62 602.63,502.88 606.65,505.72 C 609.29,507.57 612.04,509.23 614.91,510.71 C 617.74,511.61 620.6,512.32 623.52,512.86 C 630.84,513.01 638.16,513 645.48,512.84 C 649.13,512.3 652.74,511.57 656.32,510.66 C 659.51,508.88 662.78,507.26 666.13,505.8 C 668.26,503.23 670.5,500.74 672.85,498.35 C 674.53,497.04 676.16,495.67 677.72,494.22 C 680.45,490.87 683.09,487.46 685.64,483.97 C 686.39,482.79 687.06,481.57 687.65,480.31 C 688.64,477.55 689.63,474.79 690.63,472.04 C 690.99,469.09 691.73,466.24 692.86,463.48 C 692.92,460.82 693.06,458.16 693.25,455.5 C 693.03,451.88 692.89,448.26 692.81,444.64 C 692.22,442.59 691.68,440.54 691.17,438.48 C 690.45,434.78 689.8,431.08 689.22,427.36 C 689.16,426.07 689.09,424.78 689.01,423.49 C 688.41,420.82 687.78,418.14 687.13,415.48 C 685.82,412.11 684.48,408.74 683.13,405.38 C 682.29,404.25 681.45,403.14 680.59,402.03 C 679.37,399.57 678.11,397.15 676.79,394.76 C 673.58,391.29 670.21,388 666.66,384.87 C 662.15,382.85 657.82,380.48 653.68,377.76 C 650.94,376.96 648.2,376.14 645.46,375.3 C 640.63,375.34 635.82,375.1 631.04,374.58 C 627.78,376.12 624.44,377.42 620.99,378.47 C 618.02,380.57 614.97,382.52 611.83,384.32 C 609.27,386.53 607.1,389.06 605.3,391.91 C 604.56,392.48 603.84,393.08 603.15,393.72 C 601.43,396.29 599.52,398.71 597.41,400.97 C 594.43,406.89 591.37,412.77 588.23,418.62 C 587.6,420.94 586.92,423.25 586.17,425.53 C 585.45,428.56 584.8,431.59 584.21,434.64 C 584.11,436.26 584.03,437.88 583.95,439.5 C 583.11,442.26 582.8,445.1 583.03,448 Z M 445.17,446 C 445.73,442.56 446.06,439.1 446.15,435.63 C 448.1,431.82 449.94,427.96 451.69,424.05 C 453.06,422.04 454.82,420.52 456.98,419.48 C 458.47,419.09 459.97,418.9 461.51,418.94 C 462.42,418.88 463.28,419.07 464.08,419.5 C 466.43,421.78 468.68,424.14 470.83,426.6 C 472.3,429.73 473.51,432.96 474.46,436.29 C 474.53,441.62 474.54,446.95 474.5,452.29 C 473.17,456.88 471.8,461.46 470.39,466.03 C 469.42,467.3 468.3,468.43 467.04,469.41 C 465.17,470.28 463.28,471.09 461.35,471.83 C 460.79,471.93 460.23,471.88 459.69,471.68 C 457.94,470.77 456.18,469.89 454.41,469.04 C 452.68,467.41 451.18,465.59 449.91,463.58 C 449.21,461.66 448.32,459.85 447.23,458.13 C 446.72,456.95 446.3,455.75 445.97,454.51 C 445.5,451.69 445.24,448.85 445.17,446 Z M 611.08,447 C 611.05,444.84 611.08,442.67 611.16,440.51 C 611.57,438.56 611.91,436.6 612.18,434.63 C 614.06,431.12 615.92,427.61 617.75,424.09 C 620.52,420.29 624.05,419.37 628.34,421.32 C 629.63,422.3 630.91,423.31 632.17,424.34 C 633.6,426.51 635.15,428.61 636.8,430.63 C 638.63,434.03 639.37,437.66 639.04,441.51 C 639.22,442.86 639.48,444.2 639.82,445.52 C 639.99,451.81 640.01,458.1 639.88,464.39 C 638.78,466.38 637.83,468.45 637.03,470.59 C 636.19,472.07 634.95,473.08 633.33,473.63 C 629.85,474.69 626.29,475.06 622.65,474.74 C 621.37,474.39 620.1,474.01 618.83,473.6 C 618.44,473.36 618.09,473.06 617.79,472.71 C 616.08,469.52 614.25,466.39 612.32,463.33 C 612.01,457.88 611.59,452.44 611.08,447 Z M 535.89,502 C 535.62,503.79 536.32,504.94 538,505.46 C 542.56,506.01 547.06,506.92 551.5,508.2 C 554.83,507.43 558.17,506.76 561.53,506.18 C 563.53,505.31 564.26,503.81 563.72,501.67 C 563.34,499.17 561.93,497.64 559.49,497.1 C 555.83,497.07 552.16,497.05 548.49,497.07 C 545.18,497.54 541.85,497.88 538.51,498.09 C 536.47,498.59 535.6,499.89 535.89,502 Z"/></g>
</svg>
